<svg viewBox="0 0 534.347 153.836" xmlns="http://www.w3.org/2000/svg" xmlns:xlink="http://www.w3.org/1999/xlink" id="Layer_1" xml:space="preserve" overflow="hidden"><g id="Horiz"><g><g><g><g><path d="M70.339 132.336C51.218 132.336 37.37 128.878 29.179 122.058 22.248 116.287 21.5 109.789 21.5 107.264L21.5 21.5 64.781 21.5 70.955 35.435 77.135 21.5 120.422 21.5 120.422 107.263C120.422 109.789 119.673 116.287 112.742 122.057 104.55 128.877 90.7 132.335 71.578 132.335L70.339 132.335 70.339 132.336Z"/><path d="M119.923 22 119.923 107.263C119.923 112.927 116.038 131.836 71.579 131.836 71.374 131.836 71.166 131.836 70.959 131.835 70.973 131.835 70.989 131.835 71.002 131.835L70.915 131.835C70.929 131.835 70.945 131.835 70.958 131.835 70.749 131.836 70.546 131.836 70.338 131.836 25.884 131.836 22 112.927 22 107.263L22 22 64.456 22 70.955 36.668 77.461 22 119.923 22M120.923 21 119.923 21 77.461 21 76.811 21 76.547 21.595 70.956 34.201 65.37 21.595 65.107 21 64.456 21 22 21 21 21 21 22 21 107.263C21 109.859 21.766 116.536 28.859 122.442 37.143 129.339 51.098 132.836 70.339 132.836L70.959 132.835 71.579 132.836C90.821 132.836 104.778 129.339 113.063 122.442 120.157 116.536 120.923 109.859 120.923 107.263L120.923 22 120.923 21 120.923 21Z" fill="#FFFFFF"/></g><path d="M70.934 106.166C85.523 106.166 85.266 101.027 85.359 99.744L85.359 91.596C85.359 89.944 84.238 88.659 82.181 87.559L82.181 81.834 82.181 81.834 107.249 81.834 107.249 87.52C105.192 88.611 104.068 89.9 104.068 91.548L104.068 98.83C103.969 104.149 106.475 117.537 70.934 117.537 35.392 117.537 37.898 104.148 37.802 98.83L37.802 91.548C37.802 89.9 36.679 88.611 34.622 87.52L34.622 81.834 59.687 81.834 59.687 81.834 59.687 87.559C57.627 88.659 56.511 89.945 56.511 91.596L56.511 99.744C56.598 101.027 56.346 106.166 70.934 106.166L70.934 106.166Z" fill="#FDB719"/><path d="M70.934 56.127 83.048 34.332 107.222 34.332 107.222 40.015C105.162 41.118 104.044 42.422 104.044 44.074L104.044 61.384C104.044 63.034 105.162 64.317 107.222 65.417L107.222 71.1 84.33 71.1 84.33 65.37C86.388 64.269 87.511 62.989 87.511 61.337L87.511 48.153 73.761 71.1 68.109 71.1 54.355 48.153 54.355 61.338C54.355 62.99 55.476 64.269 57.536 65.371L57.536 71.101 34.648 71.101 34.648 65.417C36.699 64.317 37.826 63.034 37.826 61.384L37.826 44.074C37.826 42.423 36.699 41.118 34.648 40.015L34.648 34.332 58.828 34.332 70.934 56.127" fill="#FDB719"/></g></g><g><path d="M233.55 35.527C233.887 34.63 234.223 34.291 234.897 34.291 235.461 34.291 243.66 34.74 246.244 34.74 248.155 34.74 257.702 34.291 258.488 34.291 259.611 34.291 259.724 35.19 259.724 36.201 259.724 37.211 259.275 37.661 258.376 37.661 248.266 37.661 247.03 38.449 247.03 43.615 247.03 50.917 248.266 74.507 249.388 105.962 249.501 109.781 252.645 111.241 255.567 111.241 261.858 111.241 261.969 111.916 261.969 112.702 261.969 114.387 261.408 114.611 260.735 114.611 259.723 114.611 258.488 114.387 242.873 114.387 228.269 114.387 227.595 114.611 226.696 114.611 225.46 114.611 225.46 113.825 225.46 112.815 225.46 112.029 225.684 111.241 230.852 111.241 238.266 111.241 238.378 109.445 238.378 104.95 238.378 98.21 236.693 61.926 235.794 40.92L235.57 40.92C227.369 61.926 217.035 86.079 209.62 104.164 205.351 114.5 205.351 115.735 203.892 115.735 202.432 115.735 202.207 114.723 199.849 106.973 197.378 98.885 179.065 49.232 178.617 49.232 176.706 57.433 169.293 94.727 169.293 105.962 169.293 109.445 171.203 111.241 174.909 111.241 177.718 111.241 180.976 111.466 180.976 112.14 180.976 114.274 180.976 114.611 179.74 114.611 178.841 114.611 177.718 114.387 166.147 114.387 155.926 114.387 155.139 114.611 154.465 114.611 153.566 114.611 153.229 114.5 153.229 112.702 153.229 111.579 153.79 111.241 159.183 111.241 163.114 111.241 163.9 109.781 165.137 103.378 168.169 87.201 170.865 70.913 174.348 54.737 175.471 49.682 175.807 46.536 175.807 44.178 175.807 43.505 174.235 39.347 172.888 38.561 171.989 38 166.709 37.662 163.226 37.662 161.879 37.662 161.879 36.765 161.879 35.977 161.879 35.08 162.103 34.292 163.113 34.292 165.249 34.292 174.908 34.741 176.145 34.741 179.064 34.741 183.784 34.292 185.244 34.292 186.48 34.292 186.816 35.528 187.941 39.572 190.299 47.997 206.589 93.492 208.61 97.65 217.036 77.766 225.573 57.208 233.55 35.527Z"/><path d="M283.53 103.94C283.53 110.343 283.754 111.69 288.696 111.69 291.169 111.69 291.393 111.803 291.393 113.151 291.393 113.824 291.393 114.61 290.27 114.61 289.708 114.61 288.247 114.386 280.946 114.386 270.385 114.386 267.466 114.61 265.781 114.61 264.882 114.61 264.882 113.937 264.882 113.374 264.882 111.915 264.995 111.689 269.151 111.689 272.07 111.689 273.082 110.566 273.755 108.994 274.206 107.982 274.43 100.007 274.43 92.817L274.43 77.428C274.43 73.497 273.42 71.25 267.801 70.688 266.904 70.577 266.791 70.127 266.791 69.341 266.791 68.442 267.128 67.88 267.69 67.767 280.495 65.183 282.069 62.262 283.417 62.262 283.865 62.262 284.09 62.824 284.09 63.498 284.09 63.948 283.529 65.072 283.529 79.675L283.529 103.94 283.53 103.94ZM273.082 40.694C273.082 37.661 275.553 34.74 278.923 34.74 282.293 34.74 284.764 37.661 284.764 40.694 284.764 43.727 282.293 46.648 278.923 46.648 275.553 46.648 273.082 43.728 273.082 40.694Z"/><path d="M325.203 111.017C330.707 111.017 333.515 111.017 335.762 106.974L339.469 100.795C340.817 98.548 341.043 97.987 342.39 97.987 343.063 97.987 343.626 98.436 343.626 99.223 343.626 99.673 341.604 105.85 340.032 112.703 339.583 114.612 338.234 114.612 336.775 114.612 335.314 114.612 331.269 114.388 324.98 114.388L300.489 114.388C299.479 114.388 299.028 114.051 299.028 113.489 299.028 113.04 299.366 112.59 299.703 112.03 307.566 97.988 317.452 83.496 327.451 69.343 323.63 69.23 321.272 69.117 318.688 69.117 312.51 69.117 306.556 69.23 303.636 75.97 302.288 79.114 301.726 79.34 300.603 79.34 300.041 79.34 299.368 79.003 299.368 78.328 299.368 76.756 301.614 70.689 302.176 64.398 302.176 64.061 302.513 63.275 303.299 63.275 304.423 63.275 305.322 64.847 306.108 65.409 306.894 65.97 311.163 65.97 314.87 65.97 327.227 65.97 337.563 65.409 339.022 65.409 339.248 65.409 340.034 65.633 340.034 65.97 340.034 66.982 336.213 70.577 327.115 84.843 325.206 87.876 316.332 100.458 309.815 111.017L325.203 111.017Z"/><path d="M375.074 111.017C380.578 111.017 383.388 111.017 385.633 106.974L389.341 100.795C390.688 98.548 390.913 97.987 392.26 97.987 392.935 97.987 393.497 98.436 393.497 99.223 393.497 99.673 391.474 105.85 389.902 112.703 389.453 114.612 388.104 114.612 386.645 114.612 385.185 114.612 381.14 114.388 374.85 114.388L350.361 114.388C349.349 114.388 348.9 114.051 348.9 113.489 348.9 113.04 349.237 112.59 349.575 112.03 357.438 97.988 367.324 83.496 377.321 69.343 373.502 69.23 371.142 69.117 368.558 69.117 362.382 69.117 356.428 69.23 353.506 75.97 352.159 79.114 351.597 79.34 350.474 79.34 349.912 79.34 349.237 79.003 349.237 78.328 349.237 76.756 351.484 70.689 352.046 64.398 352.046 64.061 352.383 63.275 353.169 63.275 354.292 63.275 355.191 64.847 355.977 65.409 356.763 65.97 361.032 65.97 364.74 65.97 377.096 65.97 387.431 65.409 388.891 65.409 389.117 65.409 389.903 65.633 389.903 65.97 389.903 66.982 386.084 70.577 376.984 84.843 375.075 87.876 366.201 100.458 359.686 111.017L375.074 111.017Z"/><path d="M424.495 115.959C409.104 115.959 398.434 104.839 398.434 89.898 398.434 75.07 409.556 63.837 424.495 63.837 439.547 63.837 450.669 74.733 450.669 89.898 450.669 105.625 440.222 115.959 424.495 115.959ZM424.495 66.757C412.813 66.757 409.104 78.889 409.104 89.898 409.104 99.446 411.353 113.039 424.495 113.039 437.751 113.039 439.998 99.446 439.998 89.898 439.999 78.889 436.29 66.757 424.495 66.757Z"/><path d="M464.705 79.562C464.705 69.678 463.582 69.003 457.741 69.003 456.842 69.003 455.268 69.003 455.268 67.88 455.268 66.981 455.268 65.633 456.504 65.633 457.628 65.633 459.426 65.97 463.131 65.97 467.065 65.97 471.332 65.633 472.906 65.633 473.58 65.633 473.805 65.633 473.805 67.207L473.805 97.537C473.805 105.962 476.5 110.792 484.814 110.792 488.857 110.792 495.934 108.321 495.934 104.84L495.934 75.743C495.934 69.678 494.811 69.003 488.97 69.003 486.947 69.003 485.375 69.003 485.375 67.88 485.375 66.195 485.375 65.633 486.161 65.633 487.733 65.633 489.082 65.97 495.934 65.97 498.742 65.97 501.664 65.633 504.472 65.633 505.482 65.633 506.044 66.082 506.044 67.207 506.044 67.655 505.034 76.305 505.034 84.281L505.034 105.4C505.034 107.198 505.034 109.556 507.842 109.556 509.414 109.556 511.887 109.107 512.673 109.107 513.121 109.107 513.346 109.107 513.346 111.241 513.346 111.916 513.233 112.14 509.638 112.702 500.09 114.274 497.395 115.623 496.72 115.623 495.934 115.623 495.372 114.837 495.372 114.051 495.372 112.703 495.598 110.905 495.71 109.782 490.093 113.938 483.24 115.96 478.971 115.96 467.851 115.96 464.705 108.771 464.705 97.088L464.705 79.562 464.705 79.562Z"/></g></g></g></svg>